# xmcd CD database file
#
# Track frame offsets:
#	150
#	9896
#	18913
#	33118
#	46844
#	68432
#	77552
#	91658
#	105976
#	120318
#	133898
#	148519
#	161112
#	174033
#	185771
#	199177
#	212077
#	225427
#	239710
#	253982
#	267715
#	280986
#	294225
#	308514
#
# Disc length: 4278 seconds
#
# Revision: 0
# Processed by: cddbd v1.5.2PL0 Copyright (c) Steve Scherf et al.
# Submitted via: CDex 1.70beta2
#
DISCID=3e10b418
DTITLE=Various Artist - Yonder Come the Blues
DYEAR=2001
DGENRE=Blues
TTITLE0=Ladzekpo and Ewe Drum Orchestra/Agbekor
TTITLE1=Mamprusi Tribesmen/Ring Dance
TTITLE2=Othar Turner/Fife and Drum Piece
TTITLE3=Kunaal and Sosira/Praise Song
TTITLE4=Butch Cage and Willie Thomas/Forty Four Blues
TTITLE5=Thyam Sy Griots/Halam Improvisation
TTITLE6=Lonnie Coleman/Wild About My Loving
TTITLE7=Charlie Poole with the North Carolina Ramblers/Coon From Tennessee
TTITLE8=Lil McClintock/Don't Think I'm Santa Claus
TTITLE9=Tom Darby and Jimmie Tarlton/Sweet Sara Blues
TTITLE10=Too Tight Henry/Charleston Contest Part 2
TTITLE11=The Georgia Browns/Decatur Street 81
TTITLE12=Prairie Ramblers/Jug Rag
TTITLE13=Hokum Boys/Caught Us Doing It
TTITLE14=Bob Wills and Texas Playboys/Brain Cloudy Blues
TTITLE15=Bertha 'Chippie' Hill/Kid Man Blues
TTITLE16=Blind Lemon Jefferson/Rabbit Foot Blues
TTITLE17=Whistlin' Alex Moore/Blue Bloomer Blues
TTITLE18=Rev. J.M. Gates/Death's Black Train Is Comin'
TTITLE19=Blind Willie Johnson/When The War Was On
TTITLE20=Robert Wilkins/New Stock Yard Blues
TTITLE21=Big Bill Broonzy/Detroit Special
TTITLE22=Lil Johnson/Press My Button (Ring My Bell)
TTITLE23=Pinetop Burks/Fannie Mae Blues
EXTD=YEAR: 2001
EXTT0=
EXTT1=
EXTT2=
EXTT3=
EXTT4=
EXTT5=
EXTT6=
EXTT7=
EXTT8=
EXTT9=
EXTT10=
EXTT11=
EXTT12=
EXTT13=
EXTT14=
EXTT15=
EXTT16=
EXTT17=
EXTT18=
EXTT19=
EXTT20=
EXTT21=
EXTT22=
EXTT23=
PLAYORDER=
